<svg version="1.1" viewBox="0.0 0.0 300.0 100.0" fill="none" stroke="none" stroke-linecap="square" stroke-miterlimit="10" xmlns:xlink="http://www.w3.org/1999/xlink" xmlns="http://www.w3.org/2000/svg"><clipPath id="g29137997dec_0_1.0"><path d="m0 0l300.0 0l0 100.0l-300.0 0l0 -100.0z" clip-rule="nonzero"/></clipPath><g clip-path="url(#g29137997dec_0_1.0)"><path fill="#000000" fill-opacity="0.0" d="m0 0l300.0 0l0 100.0l-300.0 0z" fill-rule="evenodd"/><path fill="#000000" fill-opacity="0.0" d="m0 -0.0131233595l300.0 0l0 100.0l-300.0 0z" fill-rule="evenodd"/><path fill="#ffffff" d="m29.004662 63.426876q-0.828125 0 -1.375 -0.5625q-0.53125 -0.5625 -0.53125 -1.375l0 -25.28125q0 -0.8125 0.5625 -1.375q0.5625 -0.5625 1.34375 -0.5625q0.8125 0 1.375 0.5625q0.5625 0.5625 0.5625 1.375l0 23.34375l13.515625 0q0.8125 0 1.375 0.5625q0.5625 0.546875 0.5625 1.375q0 0.8125 -0.5625 1.375q-0.5625 0.5625 -1.375 0.5625l-15.453125 0zm30.933487 0.15625q-3.015625 0 -5.328125 -1.328125q-2.3125 -1.328125 -3.640625 -3.65625q-1.328125 -2.34375 -1.328125 -5.359375q0 -3.0625 1.328125 -5.390625q1.328125 -2.34375 3.640625 -3.65625q2.3125 -1.328125 5.328125 -1.328125q3.0 0 5.3125 1.328125q2.3125 1.3125 3.625 3.65625q1.328125 2.328125 1.328125 5.390625q0 3.015625 -1.3125 5.359375q-1.296875 2.328125 -3.609375 3.65625q-2.3125 1.328125 -5.34375 1.328125zm0 -3.359375q1.953125 0 3.4375 -0.890625q1.5 -0.90625 2.328125 -2.46875q0.84375 -1.578125 0.84375 -3.625q0 -2.0625 -0.84375 -3.640625q-0.828125 -1.59375 -2.328125 -2.484375q-1.484375 -0.890625 -3.4375 -0.890625q-1.9375 0 -3.4375 0.890625q-1.484375 0.890625 -2.34375 2.484375q-0.859375 1.578125 -0.859375 3.640625q0 2.046875 0.859375 3.625q0.859375 1.5625 2.34375 2.46875q1.5 0.890625 3.4375 0.890625zm17.774689 -9.5625q0 -2.234375 1.09375 -4.0q1.109375 -1.78125 2.96875 -2.828125q1.875 -1.046875 4.109375 -1.046875q2.25 0 3.34375 0.734375q1.109375 0.71875 0.84375 1.734375q-0.109375 0.515625 -0.4375 0.796875q-0.3125 0.28125 -0.734375 0.359375q-0.40625 0.0625 -0.890625 -0.046875q-2.375 -0.484375 -4.28125 -0.0625q-1.90625 0.40625 -3.015625 1.53125q-1.09375 1.109375 -1.09375 2.828125l-1.90625 0zm0.03125 12.765625q-0.890625 0 -1.375 -0.46875q-0.484375 -0.46875 -0.484375 -1.390625l0 -16.6875q0 -0.90625 0.484375 -1.390625q0.484375 -0.484375 1.375 -0.484375q0.9375 0 1.40625 0.46875q0.46875 0.46875 0.46875 1.40625l0 16.6875q0 0.890625 -0.46875 1.375q-0.46875 0.484375 -1.40625 0.484375zm24.382568 0.15625q-3.09375 0 -5.5 -1.328125q-2.40625 -1.328125 -3.78125 -3.65625q-1.359375 -2.34375 -1.359375 -5.359375q0 -3.0625 1.28125 -5.390625q1.296875 -2.34375 3.5625 -3.65625q2.28125 -1.328125 5.234375 -1.328125q2.90625 0 5.0 1.28125q2.09375 1.28125 3.1875 3.546875q1.109375 2.265625 1.109375 5.203125q0 0.71875 -0.484375 1.1875q-0.484375 0.453125 -1.234375 0.453125l-15.046875 0l0 -2.984375l14.9375 0l-1.53125 1.046875q-0.03125 -1.859375 -0.75 -3.328125q-0.703125 -1.484375 -2.015625 -2.34375q-1.296875 -0.859375 -3.171875 -0.859375q-2.125 0 -3.640625 0.9375q-1.515625 0.9375 -2.296875 2.5625q-0.78125 1.609375 -0.78125 3.671875q0 2.046875 0.9375 3.65625q0.9375 1.609375 2.578125 2.546875q1.640625 0.921875 3.765625 0.921875q1.15625 0 2.359375 -0.421875q1.21875 -0.4375 1.96875 -1.0q0.5625 -0.40625 1.21875 -0.421875q0.65625 -0.015625 1.140625 0.390625q0.625 0.5625 0.65625 1.234375q0.046875 0.671875 -0.59375 1.15625q-1.265625 1.0 -3.15625 1.640625q-1.875 0.640625 -3.59375 0.640625zm40.383965 -0.125q-0.8125 0 -1.359375 -0.53125q-0.546875 -0.546875 -0.546875 -1.359375l0 -10.6875q0 -2.34375 -1.15625 -3.484375q-1.15625 -1.140625 -3.015625 -1.140625q-1.9375 0 -3.1875 1.34375q-1.25 1.34375 -1.25 3.4375l-3.109375 0q0 -2.421875 1.046875 -4.265625q1.046875 -1.859375 2.921875 -2.90625q1.890625 -1.046875 4.328125 -1.046875q2.125 0 3.765625 0.9375q1.640625 0.9375 2.546875 2.75q0.921875 1.796875 0.921875 4.375l0 10.6875q0 0.8125 -0.53125 1.359375q-0.515625 0.53125 -1.375 0.53125zm-24.890633 0q-0.828125 0 -1.375 -0.53125q-0.53125 -0.546875 -0.53125 -1.359375l0 -16.625q0 -0.859375 0.53125 -1.375q0.546875 -0.515625 1.375 -0.515625q0.859375 0 1.375 0.515625q0.53125 0.515625 0.53125 1.375l0 16.625q0 0.8125 -0.53125 1.359375q-0.515625 0.53125 -1.375 0.53125zm12.468758 0q-0.828125 0 -1.375 -0.53125q-0.53125 -0.546875 -0.53125 -1.359375l0 -10.6875q0 -2.34375 -1.1562576 -3.484375q-1.15625 -1.140625 -3.03125 -1.140625q-1.9375 0 -3.203125 1.34375q-1.265625 1.34375 -1.265625 3.4375l-2.359375 0q0 -2.421875 0.96875 -4.265625q0.96875 -1.859375 2.6875 -2.90625q1.71875 -1.046875 3.921875 -1.046875q2.125 0 3.7656326 0.9375q1.65625 0.9375 2.5625 2.75q0.921875 1.796875 0.921875 4.375l0 10.6875q0 0.8125 -0.53125 1.359375q-0.515625 0.53125 -1.375 0.53125zm33.88855 -0.03125q-0.8125 0 -1.375 -0.5625q-0.5625 -0.5625 -0.5625 -1.375l0 -25.28125q0 -0.859375 0.5625 -1.390625q0.5625 -0.546875 1.375 -0.546875q0.859375 0 1.390625 0.546875q0.546875 0.53125 0.546875 1.390625l0 25.28125q0 0.8125 -0.546875 1.375q-0.53125 0.5625 -1.390625 0.5625zm10.941559 8.734379q-0.828125 0 -1.375 -0.546875q-0.53125 -0.53125 -0.53125 -1.359375l0 -17.015629q0.03125 -2.953125 1.375 -5.296875q1.34375 -2.359375 3.65625 -3.71875q2.328125 -1.359375 5.234375 -1.359375q2.953125 0 5.265625 1.359375q2.3125 1.359375 3.671875 3.71875q1.359375 2.34375 1.359375 5.296875q0 2.953125 -1.25 5.28125q-1.25 2.328125 -3.421875 3.703125q-2.15625 1.359375 -4.875 1.359375q-2.203125 0 -4.0625 -0.921875q-1.84375 -0.921875 -3.140625 -2.484375l0 10.078129q0 0.828125 -0.53125 1.359375q-0.515625 0.546875 -1.375 0.546875zm8.359375 -11.937504q1.90625 0 3.390625 -0.921875q1.5 -0.921875 2.375 -2.5q0.875 -1.59375 0.875 -3.5625q0 -2.015625 -0.875 -3.59375q-0.875 -1.59375 -2.375 -2.5q-1.484375 -0.921875 -3.390625 -0.921875q-1.859375 0 -3.375 0.921875q-1.515625 0.90625 -2.375 2.5q-0.859375 1.578125 -0.859375 3.59375q0 1.96875 0.859375 3.5625q0.859375 1.578125 2.375 2.5q1.515625 0.921875 3.375 0.921875zm23.39801 3.359375q-2.609375 0 -4.828125 -0.796875q-2.21875 -0.8125 -3.453125 -2.046875q-0.5625 -0.59375 -0.46875 -1.359375q0.09375 -0.765625 0.734375 -1.25q0.75 -0.59375 1.46875 -0.5q0.734375 0.078125 1.25 0.640625q0.640625 0.71875 2.03125 1.34375q1.40625 0.609375 3.125 0.609375q2.15625 0 3.296875 -0.703125q1.140625 -0.71875 1.1875 -1.84375q0.03125 -1.125 -1.078125 -1.9375q-1.09375 -0.828125 -4.0 -1.34375q-3.78125 -0.75 -5.484375 -2.234375q-1.6875 -1.5 -1.6875 -3.671875q0 -1.890625 1.109375 -3.140625q1.125 -1.265625 2.875 -1.875q1.765625 -0.609375 3.671875 -0.609375q2.453125 0 4.359375 0.78125q1.90625 0.78125 3.03125 2.15625q0.515625 0.609375 0.46875 1.265625q-0.03125 0.640625 -0.625 1.09375q-0.59375 0.40625 -1.421875 0.265625q-0.8125 -0.15625 -1.375 -0.671875q-0.9375 -0.90625 -2.015625 -1.234375q-1.078125 -0.34375 -2.5 -0.34375q-1.640625 0 -2.78125 0.5625q-1.140625 0.5625 -1.140625 1.640625q0 0.671875 0.34375 1.21875q0.359375 0.546875 1.40625 0.96875q1.046875 0.421875 3.0625 0.84375q2.796875 0.5625 4.421875 1.421875q1.625 0.84375 2.328125 1.984375q0.71875 1.140625 0.71875 2.640625q0 1.71875 -0.921875 3.09375q-0.90625 1.375 -2.6875 2.203125q-1.765625 0.828125 -4.421875 0.828125zm21.425476 0.03125q-2.5625 0 -4.609375 -1.09375q-2.03125 -1.109375 -3.203125 -3.234375q-1.171875 -2.125 -1.171875 -5.234375l0 -9.171875q0 -0.828125 0.53125 -1.359375q0.546875 -0.546875 1.375 -0.546875q0.8125 0 1.34375 0.546875q0.546875 0.53125 0.546875 1.359375l0 9.171875q0 2.09375 0.78125 3.46875q0.796875 1.359375 2.140625 2.015625q1.34375 0.640625 3.015625 0.640625q1.609375 0 2.859375 -0.625q1.25 -0.640625 2.0 -1.71875q0.75 -1.09375 0.75 -2.4375l2.34375 0q0 2.3125 -1.140625 4.1875q-1.140625 1.859375 -3.09375 2.953125q-1.953125 1.078125 -4.46875 1.078125zm8.25 -0.1875q-0.8125 0 -1.359375 -0.53125q-0.53125 -0.546875 -0.53125 -1.375l0 -16.640625q0 -0.859375 0.53125 -1.375q0.546875 -0.53125 1.359375 -0.53125q0.859375 0 1.375 0.53125q0.53125 0.515625 0.53125 1.375l0 16.640625q0 0.828125 -0.53125 1.375q-0.515625 0.53125 -1.375 0.53125zm35.426605 0.03125q-0.8125 0 -1.359375 -0.53125q-0.546875 -0.546875 -0.546875 -1.359375l0 -10.6875q0 -2.34375 -1.15625 -3.484375q-1.15625 -1.140625 -3.015625 -1.140625q-1.9375 0 -3.1875 1.34375q-1.25 1.34375 -1.25 3.4375l-3.109375 0q0 -2.421875 1.046875 -4.265625q1.046875 -1.859375 2.921875 -2.90625q1.890625 -1.046875 4.328125 -1.046875q2.125 0 3.765625 0.9375q1.640625 0.9375 2.546875 2.75q0.921875 1.796875 0.921875 4.375l0 10.6875q0 0.8125 -0.53125 1.359375q-0.515625 0.53125 -1.375 0.53125zm-24.890625 0q-0.828125 0 -1.375 -0.53125q-0.53125 -0.546875 -0.53125 -1.359375l0 -16.625q0 -0.859375 0.53125 -1.375q0.546875 -0.515625 1.375 -0.515625q0.859375 0 1.375 0.515625q0.53125 0.515625 0.53125 1.375l0 16.625q0 0.8125 -0.53125 1.359375q-0.515625 0.53125 -1.375 0.53125zm12.46875 0q-0.828125 0 -1.375 -0.53125q-0.53125 -0.546875 -0.53125 -1.359375l0 -10.6875q0 -2.34375 -1.15625 -3.484375q-1.15625 -1.140625 -3.03125 -1.140625q-1.9375 0 -3.203125 1.34375q-1.265625 1.34375 -1.265625 3.4375l-2.359375 0q0 -2.421875 0.96875 -4.265625q0.96875 -1.859375 2.6875 -2.90625q1.71875 -1.046875 3.921875 -1.046875q2.125 0 3.765625 0.9375q1.65625 0.9375 2.5625 2.75q0.921875 1.796875 0.921875 4.375l0 10.6875q0 0.8125 -0.53125 1.359375q-0.515625 0.53125 -1.375 0.53125z" fill-rule="nonzero"/><path fill="#000000" fill-opacity="0.0" d="m265.5748 13.92126l34.4252 0l0 25.41732l-34.4252 0z" fill-rule="evenodd"/><path fill="#ffffff" d="m282.82053 19.771795q1.734375 0 3.375 0.890625q1.65625 0.875 2.578125 2.53125q0.921875 1.65625 0.921875 3.453125q0 1.78125 -0.921875 3.421875q-0.90625 1.625 -2.546875 2.531252q-1.625 0.90625 -3.40625 0.90625q-1.78125 0 -3.421875 -0.90625q-1.640625 -0.9062519 -2.546875 -2.531252q-0.90625 -1.640625 -0.90625 -3.421875q0 -1.796875 0.921875 -3.453125q0.921875 -1.65625 2.5625 -2.53125q1.65625 -0.890625 3.390625 -0.890625zm0 1.140625q-1.453125 0 -2.828125 0.75q-1.359375 0.734375 -2.140625 2.109375q-0.765625 1.375 -0.765625 2.875q0 1.484375 0.75 2.84375q0.765625 1.359375 2.125 2.125q1.375 0.7656269 2.859375 0.7656269q1.484375 0 2.84375 -0.7656269q1.375 -0.765625 2.125 -2.125q0.765625 -1.359375 0.765625 -2.84375q0 -1.5 -0.78125 -2.875q-0.765625 -1.375 -2.140625 -2.109375q-1.375 -0.75 -2.8125 -0.75zm2.203125 6.84375l1.125 0.328125q-0.28125 1.140625 -1.171875 1.828125q-0.875 0.671875 -2.140625 0.671875q-1.609375 0 -2.609375 -1.03125q-1.0 -1.046875 -1.0 -2.890625q0 -1.203125 0.453125 -2.09375q0.453125 -0.890625 1.296875 -1.328125q0.84375 -0.453125 1.921875 -0.453125q1.21875 0 2.015625 0.578125q0.796875 0.578125 1.09375 1.5625l-1.078125 0.265625q-0.28125 -0.671875 -0.8125 -1.03125q-0.53125 -0.359375 -1.25 -0.359375q-1.046875 0 -1.734375 0.75q-0.671875 0.75 -0.671875 2.140625q0 1.390625 0.640625 2.109375q0.640625 0.71875 1.65625 0.71875q0.828125 0 1.4375 -0.46875q0.625 -0.484375 0.828125 -1.296875z" fill-rule="nonzero"/></g></svg>