<svg version="1.1" viewBox="0.0 0.0 300.0 100.0" fill="none" stroke="none" stroke-linecap="square" stroke-miterlimit="10" xmlns:xlink="http://www.w3.org/1999/xlink" xmlns="http://www.w3.org/2000/svg"><clipPath id="gd0975cc0b2_1_7.0"><path d="m0 0l300.0 0l0 100.0l-300.0 0l0 -100.0z" clip-rule="nonzero"/></clipPath><g clip-path="url(#gd0975cc0b2_1_7.0)"><path fill="#000000" fill-opacity="0.0" d="m0 0l300.0 0l0 100.0l-300.0 0z" fill-rule="evenodd"/><path fill="#000000" fill-opacity="0.0" d="m0 -0.0131233595l300.0 0l0 100.0l-300.0 0z" fill-rule="evenodd"/><path fill="#000000" d="m21.423248 64.38688q-0.484375 0 -0.84375 -0.34375q-0.359375 -0.34375 -0.359375 -0.859375l0 -28.84375q0 -0.515625 0.359375 -0.84375q0.359375 -0.34375 0.84375 -0.34375q0.515625 0 0.859375 0.34375q0.34375 0.328125 0.34375 0.84375l0 27.890625l16.4375 0q0.5625 0 0.875 0.296875q0.328125 0.296875 0.328125 0.78125q0 0.484375 -0.328125 0.78125q-0.3125 0.296875 -0.875 0.296875l-17.640625 0zm33.430603 0.234375q-3.1875 0 -5.734375 -1.453125q-2.546875 -1.46875 -4.0 -4.0q-1.453125 -2.546875 -1.453125 -5.703125q0 -3.203125 1.453125 -5.734375q1.453125 -2.546875 4.0 -4.0q2.546875 -1.46875 5.734375 -1.46875q3.203125 0 5.71875 1.46875q2.53125 1.453125 3.984375 4.0q1.46875 2.53125 1.46875 5.734375q0 3.15625 -1.46875 5.703125q-1.453125 2.53125 -3.984375 4.0q-2.515625 1.453125 -5.71875 1.453125zm0 -2.234375q2.53125 0 4.5 -1.171875q1.984375 -1.1875 3.125 -3.203125q1.140625 -2.03125 1.140625 -4.578125q0 -2.53125 -1.140625 -4.546875q-1.140625 -2.015625 -3.125 -3.1875q-1.96875 -1.1875 -4.5 -1.1875q-2.46875 0 -4.46875 1.1875q-2.0 1.171875 -3.171875 3.1875q-1.15625 2.015625 -1.15625 4.578125q0 2.515625 1.15625 4.546875q1.171875 2.015625 3.171875 3.203125q2.0 1.171875 4.46875 1.171875zm17.972473 -11.359375q0.234375 -2.5625 1.390625 -4.53125q1.15625 -1.984375 3.0 -3.109375q1.84375 -1.125 4.078125 -1.125q1.53125 0 2.359375 0.359375q0.84375 0.359375 0.640625 1.28125q-0.109375 0.609375 -0.5625 0.734375q-0.4375 0.109375 -1.0625 0.015625q-0.609375 -0.109375 -1.375 -0.109375q-2.0 0 -3.5625 0.84375q-1.546875 0.84375 -2.4375 2.3125q-0.875 1.453125 -0.875 3.328125l-1.59375 0zm0.390625 13.359375q-0.515625 0 -0.859375 -0.34375q-0.34375 -0.34375 -0.34375 -0.859375l0 -19.484375q0 -0.546875 0.34375 -0.859375q0.34375 -0.328125 0.859375 -0.328125q0.5625 0 0.875 0.328125q0.328125 0.3125 0.328125 0.859375l0 19.484375q0 0.515625 -0.328125 0.859375q-0.3125 0.34375 -0.875 0.34375zm24.404358 0.203125q-3.15625 0 -5.625 -1.421875q-2.453125 -1.421875 -3.859375 -3.9375q-1.390625 -2.53125 -1.390625 -5.765625q0 -3.28125 1.3125 -5.78125q1.328125 -2.5 3.640625 -3.9375q2.328125 -1.4375 5.328125 -1.4375q2.953125 0 5.234375 1.390625q2.28125 1.375 3.5625 3.796875q1.28125 2.40625 1.28125 5.578125q0 0.515625 -0.328125 0.8125q-0.3125 0.296875 -0.84375 0.296875l-17.59375 0l0 -2.078125l18.234375 0l-1.75 1.328125q0.078125 -2.609375 -0.890625 -4.609375q-0.953125 -2.0 -2.734375 -3.140625q-1.78125 -1.140625 -4.171875 -1.140625q-2.28125 0 -4.0625 1.140625q-1.78125 1.140625 -2.8125 3.140625q-1.015625 2.0 -1.015625 4.640625q0 2.609375 1.078125 4.609375q1.078125 2.0 3.0 3.140625q1.921875 1.125 4.40625 1.125q1.5625 0 3.140625 -0.53125q1.578125 -0.546875 2.5 -1.421875q0.3125 -0.3125 0.765625 -0.328125q0.46875 -0.03125 0.796875 0.25q0.4375 0.359375 0.453125 0.796875q0.015625 0.4375 -0.375 0.796875q-1.28125 1.171875 -3.34375 1.9375q-2.0625 0.75 -3.9375 0.75zm44.79747 -0.203125q-0.515625 0 -0.859375 -0.34375q-0.34375 -0.34375 -0.34375 -0.859375l0 -11.5625q0 -3.078125 -1.625 -5.03125q-1.609375 -1.96875 -4.203125 -1.96875q-2.765625 0 -4.515625 1.828125q-1.734375 1.8125 -1.65625 4.890625l-2.390625 0q0.078125 -2.75 1.1875 -4.78125q1.125 -2.046875 3.046875 -3.1875q1.921875 -1.140625 4.328125 -1.140625q2.4375 0 4.265625 1.203125q1.84375 1.1875 2.90625 3.3125q1.0625 2.125 1.0625 4.875l0 11.5625q0 0.515625 -0.328125 0.859375q-0.3125 0.34375 -0.875 0.34375zm-28.921875 0q-0.515625 0 -0.859375 -0.34375q-0.34375 -0.34375 -0.34375 -0.859375l0 -19.484375q0 -0.546875 0.34375 -0.859375q0.34375 -0.328125 0.859375 -0.328125q0.5625 0 0.875 0.328125q0.328125 0.3125 0.328125 0.859375l0 19.484375q0 0.515625 -0.328125 0.859375q-0.3125 0.34375 -0.875 0.34375zm14.515625 0q-0.515625 0 -0.859375 -0.34375q-0.328125 -0.34375 -0.328125 -0.859375l0 -11.5625q0 -3.078125 -1.625 -5.03125q-1.625 -1.96875 -4.21875 -1.96875q-2.765625 0 -4.53125 1.765625q-1.75 1.765625 -1.75 4.5625l-2.0 0q0.125 -2.5625 1.21875 -4.515625q1.09375 -1.96875 2.9375 -3.078125q1.84375 -1.125 4.125 -1.125q2.4375 0 4.28125 1.203125q1.84375 1.1875 2.890625 3.3125q1.0625 2.125 1.0625 4.875l0 11.5625q0 0.515625 -0.328125 0.859375q-0.3125 0.34375 -0.875 0.34375zm35.730576 0q-0.515625 0 -0.859375 -0.34375q-0.34375 -0.34375 -0.34375 -0.859375l0 -28.84375q0 -0.515625 0.34375 -0.84375q0.34375 -0.34375 0.859375 -0.34375q0.515625 0 0.859375 0.34375q0.34375 0.328125 0.34375 0.84375l0 28.84375q0 0.515625 -0.34375 0.859375q-0.34375 0.34375 -0.859375 0.34375zm9.993744 9.359375q-0.515625 0 -0.859375 -0.34375q-0.34375 -0.328125 -0.34375 -0.859375l0 -19.3125q0.09375 -3.15625 1.546875 -5.609375q1.453125 -2.46875 3.96875 -3.90625q2.53125 -1.453125 5.65625 -1.453125q3.1875 0 5.734375 1.46875q2.546875 1.453125 4.0 4.0q1.453125 2.53125 1.453125 5.734375q0 3.15625 -1.453125 5.703125q-1.453125 2.53125 -4.0 4.0q-2.546875 1.453125 -5.734375 1.453125q-2.890625 0 -5.1875 -1.234375q-2.296875 -1.234375 -3.578125 -3.3125l0 12.46875q0 0.53125 -0.328125 0.859375q-0.3125 0.34375 -0.875 0.34375zm9.96875 -11.359375q2.515625 0 4.484375 -1.171875q1.984375 -1.1875 3.140625 -3.203125q1.171875 -2.03125 1.171875 -4.546875q0 -2.5625 -1.171875 -4.578125q-1.15625 -2.015625 -3.140625 -3.1875q-1.96875 -1.1875 -4.484375 -1.1875q-2.484375 0 -4.484375 1.1875q-2.0 1.171875 -3.140625 3.1875q-1.140625 2.015625 -1.140625 4.578125q0 2.515625 1.140625 4.546875q1.140625 2.015625 3.140625 3.203125q2.0 1.171875 4.484375 1.171875zm24.64122 2.234375q-2.09375 0 -4.375 -0.75q-2.265625 -0.765625 -3.796875 -2.5625q-0.3125 -0.40625 -0.25 -0.859375q0.0625 -0.46875 0.5 -0.78125q0.390625 -0.28125 0.84375 -0.203125q0.46875 0.078125 0.75 0.4375q1.15625 1.359375 2.8125 1.90625q1.671875 0.53125 3.625 0.53125q3.359375 0 4.75 -1.1875q1.40625 -1.203125 1.40625 -2.8125q0 -1.546875 -1.5 -2.5625q-1.5 -1.03125 -4.609375 -1.46875q-4.0 -0.5625 -5.921875 -2.15625q-1.921875 -1.609375 -1.921875 -3.71875q0 -2.0 1.0 -3.375q1.0 -1.390625 2.734375 -2.09375q1.75 -0.703125 3.984375 -0.703125q2.71875 0 4.59375 0.984375q1.890625 0.984375 3.046875 2.625q0.328125 0.390625 0.21875 0.859375q-0.09375 0.453125 -0.625 0.734375q-0.390625 0.203125 -0.828125 0.125q-0.4375 -0.078125 -0.765625 -0.484375q-1.0 -1.28125 -2.421875 -1.9375q-1.421875 -0.65625 -3.296875 -0.65625q-2.515625 0 -3.921875 1.078125q-1.390625 1.078125 -1.390625 2.59375q0 1.046875 0.578125 1.828125q0.578125 0.78125 1.890625 1.328125q1.328125 0.53125 3.53125 0.84375q3.0 0.40625 4.734375 1.375q1.734375 0.953125 2.46875 2.21875q0.75 1.25 0.75 2.6875q0 1.875 -1.203125 3.28125q-1.203125 1.40625 -3.171875 2.140625q-1.953125 0.734375 -4.21875 0.734375zm23.705612 0.046875q-2.875 0 -5.15625 -1.171875q-2.28125 -1.1875 -3.625 -3.46875q-1.328125 -2.28125 -1.328125 -5.5625l0 -10.765625q0 -0.515625 0.328125 -0.84375q0.34375 -0.34375 0.875 -0.34375q0.515625 0 0.84375 0.34375q0.34375 0.328125 0.34375 0.84375l0 10.765625q0 2.609375 1.015625 4.34375q1.03125 1.734375 2.765625 2.59375q1.75 0.859375 3.9375 0.859375q2.171875 0 3.890625 -0.828125q1.71875 -0.84375 2.71875 -2.265625q1.0 -1.421875 1.0 -3.21875l2.0 0q-0.15625 2.484375 -1.484375 4.46875q-1.3125 1.96875 -3.421875 3.109375q-2.09375 1.140625 -4.703125 1.140625zm8.8125 -0.28125q-0.53125 0 -0.875 -0.34375q-0.328125 -0.34375 -0.328125 -0.859375l0 -19.484375q0 -0.546875 0.328125 -0.859375q0.34375 -0.328125 0.875 -0.328125q0.5625 0 0.875 0.328125q0.3125 0.3125 0.3125 0.859375l0 19.484375q0 0.515625 -0.3125 0.859375q-0.3125 0.34375 -0.875 0.34375zm38.513733 0q-0.515625 0 -0.859375 -0.34375q-0.34375 -0.34375 -0.34375 -0.859375l0 -11.5625q0 -3.078125 -1.625 -5.03125q-1.609375 -1.96875 -4.203125 -1.96875q-2.765625 0 -4.515625 1.828125q-1.734375 1.8125 -1.65625 4.890625l-2.390625 0q0.078125 -2.75 1.1875 -4.78125q1.125 -2.046875 3.046875 -3.1875q1.921875 -1.140625 4.328125 -1.140625q2.4375 0 4.265625 1.203125q1.84375 1.1875 2.90625 3.3125q1.0625 2.125 1.0625 4.875l0 11.5625q0 0.515625 -0.328125 0.859375q-0.3125 0.34375 -0.875 0.34375zm-28.92189 0q-0.515625 0 -0.859375 -0.34375q-0.34375 -0.34375 -0.34375 -0.859375l0 -19.484375q0 -0.546875 0.34375 -0.859375q0.34375 -0.328125 0.859375 -0.328125q0.5625 0 0.875 0.328125q0.328125 0.3125 0.328125 0.859375l0 19.484375q0 0.515625 -0.328125 0.859375q-0.3125 0.34375 -0.875 0.34375zm14.51564 0q-0.515625 0 -0.859375 -0.34375q-0.328125 -0.34375 -0.328125 -0.859375l0 -11.5625q0 -3.078125 -1.625 -5.03125q-1.625 -1.96875 -4.21875 -1.96875q-2.7656403 0 -4.5312653 1.765625q-1.75 1.765625 -1.75 4.5625l-2.0 0q0.125 -2.5625 1.21875 -4.515625q1.09375 -1.96875 2.9375 -3.078125q1.84375 -1.125 4.1250153 -1.125q2.4375 0 4.28125 1.203125q1.84375 1.1875 2.890625 3.3125q1.0625 2.125 1.0625 4.875l0 11.5625q0 0.515625 -0.328125 0.859375q-0.3125 0.34375 -0.875 0.34375z" fill-rule="nonzero"/><path fill="#000000" fill-opacity="0.0" d="m265.5748 13.92126l34.4252 0l0 25.41732l-34.4252 0z" fill-rule="evenodd"/><path fill="#000000" d="m282.82053 19.771795q1.734375 0 3.375 0.890625q1.65625 0.875 2.578125 2.53125q0.921875 1.65625 0.921875 3.453125q0 1.78125 -0.921875 3.421875q-0.90625 1.625 -2.546875 2.531252q-1.625 0.90625 -3.40625 0.90625q-1.78125 0 -3.421875 -0.90625q-1.640625 -0.9062519 -2.546875 -2.531252q-0.90625 -1.640625 -0.90625 -3.421875q0 -1.796875 0.921875 -3.453125q0.921875 -1.65625 2.5625 -2.53125q1.65625 -0.890625 3.390625 -0.890625zm0 1.140625q-1.453125 0 -2.828125 0.75q-1.359375 0.734375 -2.140625 2.109375q-0.765625 1.375 -0.765625 2.875q0 1.484375 0.75 2.84375q0.765625 1.359375 2.125 2.125q1.375 0.7656269 2.859375 0.7656269q1.484375 0 2.84375 -0.7656269q1.375 -0.765625 2.125 -2.125q0.765625 -1.359375 0.765625 -2.84375q0 -1.5 -0.78125 -2.875q-0.765625 -1.375 -2.140625 -2.109375q-1.375 -0.75 -2.8125 -0.75zm2.203125 6.84375l1.125 0.328125q-0.28125 1.140625 -1.171875 1.828125q-0.875 0.671875 -2.140625 0.671875q-1.609375 0 -2.609375 -1.03125q-1.0 -1.046875 -1.0 -2.890625q0 -1.203125 0.453125 -2.09375q0.453125 -0.890625 1.296875 -1.328125q0.84375 -0.453125 1.921875 -0.453125q1.21875 0 2.015625 0.578125q0.796875 0.578125 1.09375 1.5625l-1.078125 0.265625q-0.28125 -0.671875 -0.8125 -1.03125q-0.53125 -0.359375 -1.25 -0.359375q-1.046875 0 -1.734375 0.75q-0.671875 0.75 -0.671875 2.140625q0 1.390625 0.640625 2.109375q0.640625 0.71875 1.65625 0.71875q0.828125 0 1.4375 -0.46875q0.625 -0.484375 0.828125 -1.296875z" fill-rule="nonzero"/></g></svg>